<mxfile host="Electron" modified="2023-05-24T16:58:35.180Z" agent="Mozilla/5.0 (Macintosh; Intel Mac OS X 10_15_7) AppleWebKit/537.36 (KHTML, like Gecko) draw.io/21.2.8 Chrome/112.0.5615.165 Electron/24.2.0 Safari/537.36" etag="5ds8_cK6nEFqTJFDlTp-" version="21.2.8" type="device">
  <diagram id="C5RBs43oDa-KdzZeNtuy" name="Page-1">
    <mxGraphModel dx="1837" dy="908" grid="1" gridSize="10" guides="1" tooltips="1" connect="1" arrows="1" fold="1" page="1" pageScale="1" pageWidth="827" pageHeight="1169" math="0" shadow="0">
      <root>
        <mxCell id="WIyWlLk6GJQsqaUBKTNV-0" />
        <mxCell id="WIyWlLk6GJQsqaUBKTNV-1" parent="WIyWlLk6GJQsqaUBKTNV-0" />
        <mxCell id="O7Ma8Cf0j8tX5LAsiyfw-6" style="edgeStyle=orthogonalEdgeStyle;rounded=0;orthogonalLoop=1;jettySize=auto;html=1;exitX=0.5;exitY=1;exitDx=0;exitDy=0;entryX=0.5;entryY=0;entryDx=0;entryDy=0;" parent="WIyWlLk6GJQsqaUBKTNV-1" source="O7Ma8Cf0j8tX5LAsiyfw-0" target="O7Ma8Cf0j8tX5LAsiyfw-2" edge="1">
          <mxGeometry relative="1" as="geometry" />
        </mxCell>
        <mxCell id="O7Ma8Cf0j8tX5LAsiyfw-0" value="Start" style="ellipse;whiteSpace=wrap;html=1;fillColor=#e51400;fontColor=#ffffff;strokeColor=#B20000;" parent="WIyWlLk6GJQsqaUBKTNV-1" vertex="1">
          <mxGeometry x="345" y="100" width="110" height="70" as="geometry" />
        </mxCell>
        <mxCell id="O7Ma8Cf0j8tX5LAsiyfw-1" value="End" style="ellipse;whiteSpace=wrap;html=1;fillColor=#E51400;fontColor=#FFFFFF;strokeColor=#B20000;" parent="WIyWlLk6GJQsqaUBKTNV-1" vertex="1">
          <mxGeometry x="345" y="900" width="110" height="74" as="geometry" />
        </mxCell>
        <mxCell id="AYuJx-fMf_ZH3CkTGhIL-1" style="edgeStyle=orthogonalEdgeStyle;rounded=0;orthogonalLoop=1;jettySize=auto;html=1;exitX=0.5;exitY=1;exitDx=0;exitDy=0;entryX=0.5;entryY=0;entryDx=0;entryDy=0;" edge="1" parent="WIyWlLk6GJQsqaUBKTNV-1" source="O7Ma8Cf0j8tX5LAsiyfw-2" target="AYuJx-fMf_ZH3CkTGhIL-0">
          <mxGeometry relative="1" as="geometry" />
        </mxCell>
        <mxCell id="O7Ma8Cf0j8tX5LAsiyfw-2" value="Declare radius, pi, area, circumference" style="rounded=0;whiteSpace=wrap;html=1;fillColor=#FA6800;strokeColor=#C73500;fontColor=default;" parent="WIyWlLk6GJQsqaUBKTNV-1" vertex="1">
          <mxGeometry x="335" y="200" width="130" height="70" as="geometry" />
        </mxCell>
        <mxCell id="O7Ma8Cf0j8tX5LAsiyfw-8" style="edgeStyle=orthogonalEdgeStyle;rounded=0;orthogonalLoop=1;jettySize=auto;html=1;exitX=0.5;exitY=1;exitDx=0;exitDy=0;" parent="WIyWlLk6GJQsqaUBKTNV-1" source="O7Ma8Cf0j8tX5LAsiyfw-3" target="O7Ma8Cf0j8tX5LAsiyfw-4" edge="1">
          <mxGeometry relative="1" as="geometry" />
        </mxCell>
        <mxCell id="O7Ma8Cf0j8tX5LAsiyfw-3" value="Read radius" style="shape=parallelogram;perimeter=parallelogramPerimeter;whiteSpace=wrap;html=1;fixedSize=1;fillColor=#0050EF;fontColor=#FFFFFF;strokeColor=#001DBC;" parent="WIyWlLk6GJQsqaUBKTNV-1" vertex="1">
          <mxGeometry x="330" y="490" width="140" height="60" as="geometry" />
        </mxCell>
        <mxCell id="O7Ma8Cf0j8tX5LAsiyfw-9" style="edgeStyle=orthogonalEdgeStyle;rounded=0;orthogonalLoop=1;jettySize=auto;html=1;exitX=0;exitY=0.5;exitDx=0;exitDy=0;entryX=0;entryY=0.5;entryDx=0;entryDy=0;" parent="WIyWlLk6GJQsqaUBKTNV-1" source="O7Ma8Cf0j8tX5LAsiyfw-4" target="O7Ma8Cf0j8tX5LAsiyfw-19" edge="1">
          <mxGeometry relative="1" as="geometry">
            <Array as="points">
              <mxPoint x="300" y="625" />
              <mxPoint x="300" y="430" />
            </Array>
          </mxGeometry>
        </mxCell>
        <mxCell id="O7Ma8Cf0j8tX5LAsiyfw-18" style="edgeStyle=orthogonalEdgeStyle;rounded=0;orthogonalLoop=1;jettySize=auto;html=1;exitX=0.5;exitY=1;exitDx=0;exitDy=0;entryX=0.5;entryY=0;entryDx=0;entryDy=0;fontColor=default;" parent="WIyWlLk6GJQsqaUBKTNV-1" source="O7Ma8Cf0j8tX5LAsiyfw-4" target="O7Ma8Cf0j8tX5LAsiyfw-11" edge="1">
          <mxGeometry relative="1" as="geometry" />
        </mxCell>
        <mxCell id="O7Ma8Cf0j8tX5LAsiyfw-4" value="radius&amp;lt;=0" style="rhombus;whiteSpace=wrap;html=1;fillColor=#009900;" parent="WIyWlLk6GJQsqaUBKTNV-1" vertex="1">
          <mxGeometry x="350" y="580" width="100" height="90" as="geometry" />
        </mxCell>
        <mxCell id="O7Ma8Cf0j8tX5LAsiyfw-10" value="Yes" style="text;html=1;strokeColor=none;fillColor=none;align=center;verticalAlign=middle;whiteSpace=wrap;rounded=0;" parent="WIyWlLk6GJQsqaUBKTNV-1" vertex="1">
          <mxGeometry x="307" y="600" width="60" height="30" as="geometry" />
        </mxCell>
        <mxCell id="O7Ma8Cf0j8tX5LAsiyfw-15" style="edgeStyle=orthogonalEdgeStyle;rounded=0;orthogonalLoop=1;jettySize=auto;html=1;exitX=0.5;exitY=1;exitDx=0;exitDy=0;entryX=0.5;entryY=0;entryDx=0;entryDy=0;" parent="WIyWlLk6GJQsqaUBKTNV-1" source="O7Ma8Cf0j8tX5LAsiyfw-11" target="O7Ma8Cf0j8tX5LAsiyfw-14" edge="1">
          <mxGeometry relative="1" as="geometry" />
        </mxCell>
        <mxCell id="O7Ma8Cf0j8tX5LAsiyfw-11" value="circumference &amp;lt;- 2*pi*radius&lt;br&gt;area &amp;lt;- pi*(radius*radius)" style="rounded=0;whiteSpace=wrap;html=1;fillColor=#FA6800;strokeColor=#C73500;" parent="WIyWlLk6GJQsqaUBKTNV-1" vertex="1">
          <mxGeometry x="320" y="700" width="160" height="70" as="geometry" />
        </mxCell>
        <mxCell id="O7Ma8Cf0j8tX5LAsiyfw-13" value="No" style="text;html=1;strokeColor=none;fillColor=none;align=center;verticalAlign=middle;whiteSpace=wrap;rounded=0;" parent="WIyWlLk6GJQsqaUBKTNV-1" vertex="1">
          <mxGeometry x="386" y="667" width="60" height="30" as="geometry" />
        </mxCell>
        <mxCell id="O7Ma8Cf0j8tX5LAsiyfw-16" style="edgeStyle=orthogonalEdgeStyle;rounded=0;orthogonalLoop=1;jettySize=auto;html=1;exitX=0.5;exitY=1;exitDx=0;exitDy=0;entryX=0.5;entryY=0;entryDx=0;entryDy=0;" parent="WIyWlLk6GJQsqaUBKTNV-1" source="O7Ma8Cf0j8tX5LAsiyfw-14" target="O7Ma8Cf0j8tX5LAsiyfw-1" edge="1">
          <mxGeometry relative="1" as="geometry" />
        </mxCell>
        <mxCell id="O7Ma8Cf0j8tX5LAsiyfw-14" value="Display circumference, &lt;br&gt;area" style="shape=parallelogram;perimeter=parallelogramPerimeter;whiteSpace=wrap;html=1;fixedSize=1;fillColor=#0050EF;strokeColor=#001DBC;fontColor=#FFFFFF;" parent="WIyWlLk6GJQsqaUBKTNV-1" vertex="1">
          <mxGeometry x="322.5" y="800" width="155" height="70" as="geometry" />
        </mxCell>
        <mxCell id="O7Ma8Cf0j8tX5LAsiyfw-20" style="edgeStyle=orthogonalEdgeStyle;rounded=0;orthogonalLoop=1;jettySize=auto;html=1;exitX=0.5;exitY=1;exitDx=0;exitDy=0;entryX=0.5;entryY=0;entryDx=0;entryDy=0;fontColor=default;" parent="WIyWlLk6GJQsqaUBKTNV-1" source="O7Ma8Cf0j8tX5LAsiyfw-19" target="O7Ma8Cf0j8tX5LAsiyfw-3" edge="1">
          <mxGeometry relative="1" as="geometry" />
        </mxCell>
        <mxCell id="O7Ma8Cf0j8tX5LAsiyfw-19" value="Print &quot;Please enter &lt;br&gt;radius in cm:&quot;" style="shape=parallelogram;perimeter=parallelogramPerimeter;whiteSpace=wrap;html=1;fixedSize=1;fillColor=#0050EF;fontColor=#FFFFFF;strokeColor=#001DBC;" parent="WIyWlLk6GJQsqaUBKTNV-1" vertex="1">
          <mxGeometry x="330" y="400" width="140" height="60" as="geometry" />
        </mxCell>
        <mxCell id="O7Ma8Cf0j8tX5LAsiyfw-22" value="&lt;b&gt;&lt;font style=&quot;font-size: 20px;&quot;&gt;Lab 2&lt;/font&gt;&lt;/b&gt;" style="text;html=1;strokeColor=none;fillColor=none;align=center;verticalAlign=middle;whiteSpace=wrap;rounded=0;fontColor=default;" parent="WIyWlLk6GJQsqaUBKTNV-1" vertex="1">
          <mxGeometry x="30" width="110" height="80" as="geometry" />
        </mxCell>
        <mxCell id="AYuJx-fMf_ZH3CkTGhIL-2" style="edgeStyle=orthogonalEdgeStyle;rounded=0;orthogonalLoop=1;jettySize=auto;html=1;exitX=0.5;exitY=1;exitDx=0;exitDy=0;entryX=0.5;entryY=0;entryDx=0;entryDy=0;" edge="1" parent="WIyWlLk6GJQsqaUBKTNV-1" source="AYuJx-fMf_ZH3CkTGhIL-0" target="O7Ma8Cf0j8tX5LAsiyfw-19">
          <mxGeometry relative="1" as="geometry" />
        </mxCell>
        <mxCell id="AYuJx-fMf_ZH3CkTGhIL-0" value="Assign &lt;br&gt;pi = 3.142&lt;br&gt;radius = 0" style="rounded=0;whiteSpace=wrap;html=1;fillColor=#FA6800;strokeColor=#C73500;fontColor=default;" vertex="1" parent="WIyWlLk6GJQsqaUBKTNV-1">
          <mxGeometry x="335" y="300" width="130" height="70" as="geometry" />
        </mxCell>
      </root>
    </mxGraphModel>
  </diagram>
</mxfile>
